<svg width="684" height="348" viewBox="0 0 684 348" fill="none" xmlns="http://www.w3.org/2000/svg">
<path d="M2 346L24 331L46.5 313.5L74.5 287.5L90.5 274.5L142 246.5L158 236.5L195 199L242 152.5L295 104C315.667 88.8333 359.3 58 368.5 56C380 56 417 55 417.5 55C417.9 55 473.333 29.3333 501 16.5L683.5 7" stroke="#EEC009" stroke-width="4" stroke-dasharray="8 8"/>
<rect x="30" y="298" width="27" height="27" rx="13.5" fill="white"/>
<g clip-path="url(#clip0_3201_5533)">
<path d="M43.4994 320.139C48.2711 320.139 52.1394 316.271 52.1394 311.499C52.1394 306.728 48.2711 302.859 43.4994 302.859C38.7276 302.859 34.8594 306.728 34.8594 311.499C34.8594 316.271 38.7276 320.139 43.4994 320.139Z" fill="#F7931A"/>
<path d="M47.3829 310.43C47.5525 309.299 46.6901 308.69 45.5118 308.284L45.8941 306.75L44.961 306.518L44.5884 308.011C44.3432 307.95 44.0916 307.892 43.8405 307.835L44.2158 306.332L43.2827 306.1L42.9004 307.633C42.697 307.587 42.4982 307.54 42.3042 307.492L42.3053 307.487L41.0179 307.166L40.7695 308.163C40.7695 308.163 41.4623 308.322 41.4478 308.331C41.8258 308.426 41.8938 308.676 41.8825 308.875L41.4472 310.622C41.4735 310.628 41.5059 310.638 41.5444 310.652L41.4456 310.628L40.8354 313.075C40.789 313.19 40.6718 313.362 40.4072 313.297C40.4169 313.31 39.7289 313.128 39.7289 313.128L39.2656 314.196L40.4806 314.499C40.7063 314.555 40.9277 314.615 41.1454 314.67L40.7593 316.221L41.6918 316.454L42.0742 314.92C42.3287 314.988 42.5767 315.053 42.8183 315.113L42.437 316.64L43.3702 316.872L43.7563 315.324C45.3482 315.626 46.5448 315.504 47.0486 314.065C47.4547 312.906 47.0287 312.237 46.1911 311.801C46.8013 311.661 47.2603 311.259 47.3829 310.43ZM45.2499 313.421C44.9621 314.58 43.01 313.953 42.3771 313.796L42.8901 311.742C43.523 311.9 45.5518 312.212 45.2499 313.421ZM45.5388 310.414C45.2758 311.468 43.6515 310.932 43.125 310.801L43.5894 308.938C44.1159 309.069 45.8131 309.314 45.5388 310.414Z" fill="white"/>
</g>
<rect x="156" y="210" width="27" height="27" rx="13.5" fill="white"/>
<g clip-path="url(#clip1_3201_5533)">
<path d="M169.499 232.139C174.271 232.139 178.139 228.271 178.139 223.499C178.139 218.728 174.271 214.859 169.499 214.859C164.728 214.859 160.859 218.728 160.859 223.499C160.859 228.271 164.728 232.139 169.499 232.139Z" fill="#F7931A"/>
<path d="M173.383 222.43C173.552 221.299 172.69 220.69 171.512 220.284L171.894 218.75L170.961 218.518L170.588 220.011C170.343 219.95 170.092 219.892 169.841 219.835L170.216 218.332L169.283 218.1L168.9 219.633C168.697 219.587 168.498 219.54 168.304 219.492L168.305 219.487L167.018 219.166L166.77 220.163C166.77 220.163 167.462 220.322 167.448 220.331C167.826 220.426 167.894 220.676 167.882 220.875L167.447 222.622C167.474 222.628 167.506 222.638 167.544 222.652L167.446 222.628L166.835 225.075C166.789 225.19 166.672 225.362 166.407 225.297C166.417 225.31 165.729 225.128 165.729 225.128L165.266 226.196L166.481 226.499C166.706 226.555 166.928 226.615 167.145 226.67L166.759 228.221L167.692 228.454L168.074 226.92C168.329 226.988 168.577 227.053 168.818 227.113L168.437 228.64L169.37 228.872L169.756 227.324C171.348 227.626 172.545 227.504 173.049 226.065C173.455 224.906 173.029 224.237 172.191 223.801C172.801 223.661 173.26 223.259 173.383 222.43ZM171.25 225.421C170.962 226.58 169.01 225.953 168.377 225.796L168.89 223.742C169.523 223.9 171.552 224.212 171.25 225.421ZM171.539 222.414C171.276 223.468 169.652 222.932 169.125 222.801L169.589 220.938C170.116 221.069 171.813 221.314 171.539 222.414Z" fill="white"/>
</g>
<rect x="281" y="95" width="27" height="27" rx="13.5" fill="white"/>
<g clip-path="url(#clip2_3201_5533)">
<path d="M294.499 117.139C299.271 117.139 303.139 113.271 303.139 108.499C303.139 103.728 299.271 99.8594 294.499 99.8594C289.728 99.8594 285.859 103.728 285.859 108.499C285.859 113.271 289.728 117.139 294.499 117.139Z" fill="#F7931A"/>
<path d="M298.383 107.43C298.552 106.299 297.69 105.69 296.512 105.284L296.894 103.75L295.961 103.518L295.588 105.011C295.343 104.95 295.092 104.892 294.841 104.835L295.216 103.332L294.283 103.1L293.9 104.633C293.697 104.587 293.498 104.54 293.304 104.492L293.305 104.487L292.018 104.166L291.77 105.163C291.77 105.163 292.462 105.322 292.448 105.331C292.826 105.426 292.894 105.676 292.882 105.875L292.447 107.622C292.474 107.628 292.506 107.638 292.544 107.652L292.446 107.628L291.835 110.075C291.789 110.19 291.672 110.362 291.407 110.297C291.417 110.31 290.729 110.128 290.729 110.128L290.266 111.196L291.481 111.499C291.706 111.555 291.928 111.615 292.145 111.67L291.759 113.221L292.692 113.454L293.074 111.92C293.329 111.988 293.577 112.053 293.818 112.113L293.437 113.64L294.37 113.872L294.756 112.324C296.348 112.626 297.545 112.504 298.049 111.065C298.455 109.906 298.029 109.237 297.191 108.801C297.801 108.661 298.26 108.259 298.383 107.43ZM296.25 110.421C295.962 111.58 294.01 110.953 293.377 110.796L293.89 108.742C294.523 108.9 296.552 109.212 296.25 110.421ZM296.539 107.414C296.276 108.468 294.652 107.932 294.125 107.801L294.589 105.938C295.116 106.069 296.813 106.314 296.539 107.414Z" fill="white"/>
</g>
<rect x="464" y="13" width="27" height="27" rx="13.5" fill="white"/>
<g clip-path="url(#clip3_3201_5533)">
<path d="M477.499 35.1394C482.271 35.1394 486.139 31.2711 486.139 26.4994C486.139 21.7276 482.271 17.8594 477.499 17.8594C472.728 17.8594 468.859 21.7276 468.859 26.4994C468.859 31.2711 472.728 35.1394 477.499 35.1394Z" fill="#F7931A"/>
<path d="M481.383 25.4304C481.552 24.2986 480.69 23.69 479.512 23.2839L479.894 21.7503L478.961 21.5181L478.588 23.0112C478.343 22.9496 478.092 22.8924 477.841 22.8352L478.216 21.3323L477.283 21.0996L476.9 22.6327C476.697 22.5869 476.498 22.5401 476.304 22.4923L476.305 22.4874L475.018 22.1661L474.77 23.1629C474.77 23.1629 475.462 23.3217 475.448 23.3314C475.826 23.4259 475.894 23.6759 475.882 23.8747L475.447 25.6216C475.474 25.6277 475.506 25.6379 475.544 25.6523L475.446 25.628L474.835 28.0753C474.789 28.1898 474.672 28.3621 474.407 28.2967C474.417 28.3102 473.729 28.1277 473.729 28.1277L473.266 29.1958L474.481 29.4988C474.706 29.5555 474.928 29.6149 475.145 29.6705L474.759 31.2214L475.692 31.4536L476.074 29.92C476.329 29.9884 476.577 30.0526 476.818 30.1128L476.437 31.6399L477.37 31.8721L477.756 30.3244C479.348 30.6257 480.545 30.5042 481.049 29.0646C481.455 27.9058 481.029 27.2367 480.191 26.8009C480.801 26.6605 481.26 26.2593 481.383 25.4304ZM479.25 28.4209C478.962 29.5803 477.01 28.9534 476.377 28.7962L476.89 26.7415C477.523 26.8997 479.552 27.2124 479.25 28.4209ZM479.539 25.4137C479.276 26.4683 477.652 25.9321 477.125 25.8008L477.589 23.9378C478.116 24.0691 479.813 24.3137 479.539 25.4137Z" fill="white"/>
</g>
<rect x="605" width="27" height="27" rx="13.5" fill="white"/>
<g clip-path="url(#clip4_3201_5533)">
<path d="M618.499 22.1394C623.271 22.1394 627.139 18.2711 627.139 13.4994C627.139 8.72763 623.271 4.85938 618.499 4.85938C613.728 4.85938 609.859 8.72763 609.859 13.4994C609.859 18.2711 613.728 22.1394 618.499 22.1394Z" fill="#F7931A"/>
<path d="M622.383 12.4304C622.552 11.2986 621.69 10.69 620.512 10.2839L620.894 8.75031L619.961 8.51811L619.588 10.0112C619.343 9.94965 619.092 9.89241 618.841 9.83517L619.216 8.33235L618.283 8.09961L617.9 9.63267C617.697 9.58695 617.498 9.54015 617.304 9.49227L617.305 9.48741L616.018 9.16611L615.77 10.1629C615.77 10.1629 616.462 10.3217 616.448 10.3314C616.826 10.4259 616.894 10.6759 616.882 10.8747L616.447 12.6216C616.474 12.6277 616.506 12.6379 616.544 12.6523L616.446 12.628L615.835 15.0753C615.789 15.1898 615.672 15.3621 615.407 15.2967C615.417 15.3102 614.729 15.1277 614.729 15.1277L614.266 16.1958L615.481 16.4988C615.706 16.5555 615.928 16.6149 616.145 16.6705L615.759 18.2214L616.692 18.4536L617.074 16.92C617.329 16.9884 617.577 17.0526 617.818 17.1128L617.437 18.6399L618.37 18.8721L618.756 17.3244C620.348 17.6257 621.545 17.5042 622.049 16.0646C622.455 14.9058 622.029 14.2367 621.191 13.8009C621.801 13.6605 622.26 13.2593 622.383 12.4304ZM620.25 15.4209C619.962 16.5803 618.01 15.9534 617.377 15.7962L617.89 13.7415C618.523 13.8997 620.552 14.2124 620.25 15.4209ZM620.539 12.4137C620.276 13.4683 618.652 12.9321 618.125 12.8008L618.589 10.9378C619.116 11.0691 620.813 11.3137 620.539 12.4137Z" fill="white"/>
</g>
<defs>
<clipPath id="clip0_3201_5533">
<rect width="17.28" height="17.28" fill="white" transform="translate(34.8594 302.86)"/>
</clipPath>
<clipPath id="clip1_3201_5533">
<rect width="17.28" height="17.28" fill="white" transform="translate(160.859 214.86)"/>
</clipPath>
<clipPath id="clip2_3201_5533">
<rect width="17.28" height="17.28" fill="white" transform="translate(285.859 99.8604)"/>
</clipPath>
<clipPath id="clip3_3201_5533">
<rect width="17.28" height="17.28" fill="white" transform="translate(468.859 17.8604)"/>
</clipPath>
<clipPath id="clip4_3201_5533">
<rect width="17.28" height="17.28" fill="white" transform="translate(609.859 4.86035)"/>
</clipPath>
</defs>
</svg>
