<svg width="237" height="52" viewBox="0 0 237 52" fill="none" xmlns="http://www.w3.org/2000/svg">
<rect y="0.427734" width="51.1443" height="51.1443" rx="25.5722" fill="#FF8CA8"/>
<path d="M25.5705 7.73438L29.6715 20.3558L42.9424 20.3558L32.206 28.1562L36.3069 40.7776L25.5705 32.9771L14.8341 40.7776L18.9351 28.1562L8.19868 20.3558L21.4696 20.3558L25.5705 7.73438Z" fill="black"/>
<path d="M91.7453 16.7088C93.3597 16.7088 94.7281 16.886 95.8504 17.2404C96.9726 17.5751 97.8684 18.1461 98.5379 18.9533C99.227 19.7408 99.729 20.8237 100.044 22.2019C100.359 23.5604 100.517 25.2635 100.517 27.3111C100.517 29.3587 100.359 31.0717 100.044 32.4499C99.729 33.8084 99.227 34.8913 98.5379 35.6985C97.8684 36.486 96.9726 37.057 95.8504 37.4114C94.7281 37.7461 93.3597 37.9135 91.7453 37.9135C90.1308 37.9135 88.7624 37.7461 87.6402 37.4114C86.5179 37.057 85.6123 36.486 84.9232 35.6985C84.2341 34.8913 83.732 33.8084 83.417 32.4499C83.102 31.0717 82.9445 29.3587 82.9445 27.3111C82.9445 25.2635 83.102 23.5604 83.417 22.2019C83.732 20.8237 84.2341 19.7408 84.9232 18.9533C85.6123 18.1461 86.5179 17.5751 87.6402 17.2404C88.7624 16.886 90.1308 16.7088 91.7453 16.7088ZM91.7453 20.2823C90.7018 20.2823 89.8847 20.489 89.294 20.9025C88.7231 21.3159 88.3096 22.0346 88.0537 23.0584C87.8174 24.0625 87.6993 25.4801 87.6993 27.3111C87.6993 29.1225 87.8174 30.5401 88.0537 31.5639C88.3096 32.5877 88.7231 33.3063 89.294 33.7198C89.8847 34.1332 90.7018 34.34 91.7453 34.34C92.7691 34.34 93.5665 34.1332 94.1374 33.7198C94.7281 33.3063 95.1416 32.5877 95.3778 31.5639C95.6338 30.5401 95.7618 29.1225 95.7618 27.3111C95.7618 25.4801 95.6338 24.0625 95.3778 23.0584C95.1416 22.0346 94.7281 21.3159 94.1374 20.9025C93.5665 20.489 92.7691 20.2823 91.7453 20.2823ZM111.783 16.8269C113.692 16.8269 115.189 17.0238 116.272 17.4176C117.355 17.8114 118.122 18.4906 118.575 19.4554C119.048 20.4201 119.284 21.7688 119.284 23.5014C119.284 25.234 119.058 26.5826 118.605 27.5474C118.172 28.5121 117.453 29.1914 116.449 29.5852C115.445 29.9592 114.086 30.1463 112.373 30.1463C111.468 30.1463 110.582 30.1069 109.715 30.0282C108.849 29.9494 108.042 29.851 107.294 29.7328C106.546 29.6147 105.906 29.4966 105.374 29.3784C104.842 29.2406 104.478 29.1126 104.281 28.9945L104.37 26.75C105.532 26.75 106.733 26.75 107.973 26.75C109.233 26.75 110.473 26.75 111.694 26.75C112.482 26.7303 113.092 26.6319 113.525 26.4547C113.978 26.2775 114.293 25.9526 114.47 25.4801C114.667 25.0076 114.766 24.348 114.766 23.5014C114.766 22.6351 114.667 21.9657 114.47 21.4931C114.293 21.0206 113.978 20.6957 113.525 20.5185C113.092 20.3217 112.482 20.2232 111.694 20.2232C109.883 20.2232 108.327 20.2331 107.028 20.2527C105.728 20.2724 104.852 20.3118 104.399 20.3709L103.956 17.1223C104.783 17.0238 105.561 16.9549 106.29 16.9155C107.018 16.8761 107.806 16.8565 108.652 16.8565C109.519 16.8368 110.562 16.8269 111.783 16.8269ZM108.475 17.1223V37.5H103.956V17.1223H108.475ZM128.771 22.5268C131.232 22.5268 132.994 22.9501 134.057 23.7967C135.14 24.6236 135.682 25.864 135.682 27.5179C135.701 28.8567 135.367 29.8608 134.678 30.5302C133.989 31.1799 132.797 31.5048 131.104 31.5048H122.953V29.0536H129.893C130.563 29.0536 130.986 28.9158 131.163 28.6401C131.36 28.3448 131.459 27.9412 131.459 27.4293C131.439 26.7402 131.232 26.2676 130.838 26.0117C130.464 25.736 129.824 25.5982 128.919 25.5982C128.112 25.5982 127.481 25.7065 127.029 25.9231C126.576 26.1397 126.261 26.5531 126.084 27.1635C125.906 27.7738 125.818 28.6598 125.818 29.8214C125.818 31.0421 125.926 31.9872 126.143 32.6566C126.359 33.3063 126.723 33.7592 127.235 34.0151C127.767 34.2711 128.495 34.399 129.421 34.399C130.09 34.399 130.917 34.3794 131.902 34.34C132.906 34.2809 133.91 34.1923 134.914 34.0742L135.327 36.7617C134.756 37.0373 134.107 37.2539 133.378 37.4114C132.65 37.5689 131.902 37.6772 131.134 37.7363C130.366 37.815 129.628 37.8544 128.919 37.8544C127.068 37.8544 125.572 37.5886 124.43 37.057C123.307 36.5057 122.49 35.669 121.978 34.5467C121.486 33.4245 121.24 31.9872 121.24 30.2349C121.24 28.3251 121.496 26.8091 122.008 25.6868C122.52 24.5646 123.327 23.7573 124.43 23.2651C125.532 22.7729 126.979 22.5268 128.771 22.5268ZM148.69 22.5268C151.446 22.5268 152.824 23.8755 152.824 26.5728V37.5H148.453V27.9313C148.453 27.2816 148.335 26.8386 148.099 26.6023C147.863 26.3464 147.459 26.2184 146.888 26.2184C146.258 26.2184 145.608 26.3464 144.939 26.6023C144.27 26.8386 143.443 27.2127 142.458 27.7246L142.251 25.2734C143.295 24.3874 144.358 23.7081 145.441 23.2356C146.544 22.7631 147.626 22.5268 148.69 22.5268ZM142.045 22.9107L142.547 25.8049L142.901 26.1889V37.5H138.53V22.9107H142.045ZM179.209 17.1223V29.3784C179.209 31.4457 178.953 33.1094 178.441 34.3695C177.929 35.6099 177.083 36.5156 175.902 37.0865C174.74 37.6378 173.184 37.9135 171.235 37.9135C169.168 37.9135 167.514 37.6378 166.274 37.0865C165.033 36.5156 164.138 35.6099 163.586 34.3695C163.035 33.1094 162.759 31.4457 162.759 29.3784V17.1223H167.278V29.3784C167.278 30.6582 167.386 31.6623 167.603 32.3908C167.839 33.0996 168.233 33.6016 168.784 33.897C169.335 34.1923 170.074 34.34 170.999 34.34C171.924 34.34 172.653 34.1923 173.184 33.897C173.736 33.6016 174.12 33.0996 174.336 32.3908C174.573 31.6623 174.691 30.6582 174.691 29.3784V17.1223H179.209ZM189.887 16.7383C190.891 16.7383 191.984 16.7974 193.165 16.9155C194.346 17.014 195.498 17.2305 196.62 17.5652L196.325 20.5481C195.459 20.5284 194.445 20.5087 193.283 20.489C192.121 20.4693 190.979 20.4595 189.857 20.4595C189.306 20.4595 188.833 20.4792 188.44 20.5185C188.066 20.5382 187.76 20.617 187.524 20.7548C187.288 20.8729 187.121 21.06 187.022 21.3159C186.924 21.5719 186.874 21.9263 186.874 22.3791C186.874 23.0682 187.032 23.5703 187.347 23.8853C187.682 24.2003 188.243 24.4858 189.03 24.7418L192.958 26.0117C194.592 26.563 195.724 27.3111 196.354 28.2562C196.985 29.2012 197.3 30.4416 197.3 31.9773C197.3 33.139 197.162 34.1037 196.886 34.8716C196.61 35.6394 196.177 36.2399 195.587 36.6731C194.996 37.1062 194.218 37.4114 193.254 37.5886C192.289 37.7855 191.107 37.8839 189.71 37.8839C189.04 37.8839 188.085 37.8347 186.845 37.7363C185.604 37.6575 184.187 37.4409 182.592 37.0865L182.887 33.897C184.049 33.9167 185.053 33.9462 185.9 33.9856C186.766 34.0053 187.504 34.025 188.115 34.0446C188.725 34.0446 189.257 34.0446 189.71 34.0446C190.497 34.0446 191.107 33.9954 191.541 33.897C191.993 33.7985 192.308 33.6016 192.486 33.3063C192.663 33.011 192.751 32.5877 192.751 32.0364C192.751 31.5639 192.683 31.1898 192.545 30.9141C192.427 30.6188 192.22 30.3924 191.925 30.2349C191.649 30.0577 191.265 29.9002 190.773 29.7624L186.638 28.3448C185.083 27.7738 183.98 27.0256 183.33 26.1003C182.681 25.1749 182.356 23.9542 182.356 22.4382C182.356 21.2569 182.494 20.302 182.769 19.5735C183.065 18.8253 183.508 18.2445 184.098 17.831C184.709 17.4176 185.486 17.1321 186.431 16.9746C187.396 16.8171 188.548 16.7383 189.887 16.7383ZM208.461 16.8269C210.076 16.8269 211.434 17.0041 212.537 17.3585C213.659 17.6932 214.555 18.2544 215.224 19.0419C215.913 19.8294 216.415 20.9025 216.73 22.261C217.045 23.5998 217.203 25.2832 217.203 27.3111C217.203 29.3391 217.045 31.0323 216.73 32.3908C216.415 33.7296 215.913 34.7928 215.224 35.5804C214.555 36.3679 213.659 36.9389 212.537 37.2933C211.434 37.628 210.076 37.7953 208.461 37.7953C206.906 37.7953 205.478 37.7658 204.179 37.7067C202.879 37.6477 201.639 37.5788 200.458 37.5L202.348 34.1628C203.096 34.2022 203.982 34.2415 205.006 34.2809C206.049 34.3006 207.201 34.3104 208.461 34.3104C209.465 34.3104 210.253 34.1136 210.824 33.7198C211.414 33.3063 211.828 32.5877 212.064 31.5639C212.32 30.5401 212.448 29.1225 212.448 27.3111C212.448 25.4998 212.32 24.0822 212.064 23.0584C211.828 22.0346 211.414 21.3159 210.824 20.9025C210.253 20.489 209.465 20.2823 208.461 20.2823C207.26 20.2823 206.187 20.2921 205.242 20.3118C204.297 20.3118 203.372 20.3118 202.466 20.3118L200.458 17.1223C201.639 17.0435 202.87 16.9746 204.149 16.9155C205.449 16.8565 206.886 16.8269 208.461 16.8269ZM204.976 17.1223V37.5H200.458V17.1223H204.976ZM229.425 17.1223V37.5H224.907V17.1223H229.425ZM235.568 17.1223V20.6662H218.793V17.1223H235.568Z" fill="black"/>
</svg>
