<svg width="16" height="17" viewBox="0 0 16 17" fill="none" xmlns="http://www.w3.org/2000/svg">
<path d="M4.39844 8.09801C4.39844 6.28068 4.39844 5.37201 4.96044 4.80734C5.5231 4.24268 6.42777 4.24268 8.23844 4.24268H10.1584C11.9684 4.24268 12.8738 4.24268 13.4358 4.80734C13.9984 5.37201 13.9984 6.28068 13.9984 8.09801V11.3113C13.9984 13.1287 13.9984 14.0373 13.4358 14.602C12.8738 15.1667 11.9684 15.1667 10.1584 15.1667H8.23844C6.42777 15.1667 5.5231 15.1667 4.96044 14.602C4.39777 14.0373 4.39844 13.1287 4.39844 11.3113V8.09801Z" fill="white"/>
<path opacity="0.5" d="M2.78133 2.61483C2 3.3955 2 4.65283 2 7.16683V8.50016C2 11.0142 2 12.2715 2.78133 13.0522C3.19267 13.4642 3.73667 13.6588 4.528 13.7508C4.4 13.1908 4.4 12.4202 4.4 11.3108V8.09816C4.4 6.28083 4.4 5.37216 4.962 4.8075C5.52467 4.24283 6.42933 4.24283 8.24 4.24283H10.16C11.2613 4.24283 12.0267 4.24283 12.5853 4.3695C12.4933 3.57416 12.2987 3.02816 11.8853 2.61483C11.1047 1.8335 9.84733 1.8335 7.33333 1.8335C4.81933 1.8335 3.562 1.8335 2.78133 2.61483Z" fill="white"/>
</svg>
