<svg width="322" height="179" viewBox="0 0 322 179" fill="none" xmlns="http://www.w3.org/2000/svg">
<g clip-path="url(#clip0_3176_5892)">
<mask id="mask0_3176_5892" style="mask-type:alpha" maskUnits="userSpaceOnUse" x="0" y="0" width="322" height="179">
<path d="M322 0H0V179H322V0Z" fill="#D9D9D9"/>
</mask>
<g mask="url(#mask0_3176_5892)">
<path d="M286.49 69.4386C276.853 69.4089 269.014 77.198 268.984 86.8348C268.954 96.4718 276.743 104.31 286.38 104.341C296.017 104.371 303.855 96.5814 303.886 86.9446C303.917 77.3069 296.127 69.4692 286.49 69.4386ZM286.403 97.4357C280.582 97.4177 275.88 92.677 275.898 86.8579C275.916 81.0378 280.649 76.3272 286.469 76.3461C292.296 76.3641 296.999 81.1042 296.981 86.9243C296.962 92.7428 292.23 97.4537 286.403 97.4357Z" fill="#A6A6A6"/>
<path d="M293.483 74.0059C283.847 73.9753 276.008 81.7654 275.977 91.4022C275.948 101.04 283.737 108.878 293.374 108.909C303.011 108.938 310.849 101.149 310.879 91.5116C310.911 81.8742 303.12 74.0355 293.483 74.0059ZM293.395 102.002C287.575 101.984 282.873 97.2431 282.891 91.424C282.909 85.6039 287.642 80.8933 293.462 80.9122C299.289 80.9302 303.992 85.6703 303.974 91.4904C303.956 97.3092 299.224 102.021 293.395 102.002Z" fill="#666666"/>
<path d="M287.519 0.842254L34.3491 0.0509464C15.7963 -0.00661134 0.711531 14.9836 0.652734 33.5371L0.304853 144.731C0.247295 163.283 15.2376 178.361 33.7904 178.418L286.96 179.21C305.506 179.268 320.591 164.284 320.648 145.731L320.997 34.5383C321.056 15.9848 306.064 0.900735 287.519 0.842254ZM301.828 90.0756C301.809 96.035 296.96 100.855 290.993 100.836C290.108 100.833 289.24 100.722 288.417 100.517C283.696 99.3457 280.209 95.083 280.225 90.0079C280.244 84.0413 285.093 79.2218 291.059 79.2408C293.519 79.2489 295.79 80.0778 297.602 81.4804C300.18 83.4517 301.839 86.5678 301.828 90.0756Z" fill="#858585"/>
<path d="M288.228 11.5755C286.111 11.0799 283.909 10.8177 281.658 10.8101L62.5524 10.1251C45.1247 10.0702 30.9545 25.3747 30.8954 44.3155L30.6057 136.964C30.5634 150.629 37.8894 162.454 48.5188 167.996C51.7339 169.667 55.2533 170.772 58.9614 171.171C59.9778 171.283 61.0098 171.341 62.0494 171.344L281.154 172.028C298.582 172.083 312.76 156.779 312.82 137.846L313.109 45.197C313.16 28.7087 302.488 14.9021 288.228 11.5755ZM301.826 90.0751C301.807 96.0343 296.958 100.853 290.991 100.834C290.107 100.832 289.238 100.721 288.416 100.516C283.694 99.3451 280.207 95.0824 280.223 90.0073C280.242 84.0407 285.091 79.2213 291.058 79.2402C293.517 79.2483 295.788 80.0772 297.6 81.4799C300.178 83.4511 301.837 86.5673 301.826 90.0751Z" fill="#A6A6A6"/>
<path d="M304.027 41.585C304.035 56.5374 301.766 69.7687 297.601 81.4804C295.79 80.0781 293.519 79.2479 291.058 79.2408C285.092 79.2218 280.242 84.041 280.224 90.0079C280.208 95.0831 283.695 99.3457 288.416 100.517C259.741 146.403 195.953 162.631 134.619 168.266C133.68 168.349 132.741 168.439 131.802 168.513C106.065 170.745 80.8522 171.163 58.9625 171.173C50.8069 171.17 43.1175 171.115 36.0251 171.078C20.01 170.997 7.07449 155.949 7.13301 137.397L7.43593 40.4027C7.49349 21.8498 20.5222 6.85256 36.538 6.90247L275.126 7.90429C279.852 7.91905 284.302 9.2441 288.229 11.5771C289.368 12.2483 290.459 13.0118 291.504 13.8536C291.751 14.0486 292 14.2584 292.247 14.4688C299.398 20.5966 304.023 30.4653 304.027 41.585Z" fill="#4D4D4D"/>
<path d="M291.506 13.8513C287.655 12.0706 283.406 10.9936 278.929 10.8012C278.471 10.7761 278.006 10.7667 277.54 10.7656L44.2579 10.0373C25.7051 9.97969 10.6203 24.9699 10.5618 43.5152L10.2775 134.286C10.22 152.839 25.2102 167.924 43.7637 167.982L277.046 168.712C295.311 168.769 310.209 154.243 310.732 136.095C310.74 135.894 310.741 135.685 310.741 135.483L311.026 44.4557C311.069 30.8906 303.066 19.1799 291.506 13.8513ZM290.993 100.835C290.108 100.833 289.24 100.722 288.417 100.516C283.695 99.3453 280.209 95.0825 280.225 90.0075C280.244 84.0409 285.093 79.2214 291.059 79.2403C293.519 79.2484 295.79 80.0774 297.602 81.48C300.18 83.4513 301.838 86.5684 301.827 90.0752C301.809 96.0348 296.96 100.853 290.993 100.835Z" fill="#666666"/>
<path d="M292.25 14.4665C291.12 13.9039 289.957 13.4122 288.764 12.9814C236.345 13.5774 112.529 12.4303 69.7404 48.0454C30.3978 80.7841 30.6829 160.833 112.873 168.197C113.998 168.302 115.138 168.39 116.294 168.463L277.048 168.966C295.399 169.023 310.351 154.358 310.734 136.094C310.743 135.892 310.743 135.683 310.744 135.481L311.027 44.7106C311.069 31.442 303.408 19.9487 292.25 14.4665ZM291.063 79.2398C293.523 79.2478 295.793 80.0768 297.606 81.4794C300.183 83.4507 301.842 86.5678 301.831 90.0746C301.812 96.0339 296.963 100.853 290.996 100.834C290.112 100.832 289.243 100.72 288.421 100.515C283.699 99.3447 280.213 95.0819 280.228 90.0069C280.246 84.0409 285.096 79.2217 291.063 79.2398Z" fill="#757575"/>
</g>
</g>
<defs>
<clipPath id="clip0_3176_5892">
<rect width="322" height="179" fill="white"/>
</clipPath>
</defs>
</svg>
